<svg fill="none" xmlns="http://www.w3.org/2000/svg" viewBox="15 15 139.04 28.08"><path d="M22.866 24.35c-.173-.1-.57-.297-.371-.643.198-.371.643 0 .643 0 3.215 1.805 5.293 1.162 6.085.742.123-.42.222-.866.272-1.336-4.057 1.262-7.1-2.201-7.1-2.201s-.914 1.113-2.522 1.039c-1.608-.075-2.597-1.559-2.597-1.559s2.523-2.177 3.957-3.586c.94-.916 2.424-1.287 3.34-1.435a7.117 7.117 0 00-2.3-.371C18.264 15 15 18.265 15 22.272s3.265 7.272 7.272 7.272c.643 0 1.46-.099 2.053-.272-2.078-.198-4.502-1.558-4.502-1.558s-.668-.248-.42-.594c.222-.37.668 0 .668 0 1.978 1.163 4.65 1.534 5.49 1.633a7.822 7.822 0 001.584-1.089c-2.226.347-5.343-1.261-5.763-1.484-.42-.222-.792-.395-.446-.791.198-.223.792.173.792.173 3.71 1.83 5.689 1.36 6.357 1.063.297-.395.569-.84.791-1.31-2.696.89-5.837-.891-6.01-.965z" fill="#fff"/><path d="M21.777 17.3l-3.438 3.142c1.658 1.607 3.315.099 3.315.099l2.003-1.559s.223-.296.495-.099c.297.223.05.545.05.545l-1.188 1.063c3.067 2.845 5.714 2.103 6.53 1.756a7.225 7.225 0 00-2.622-5.565c-3.017-1.36-5.145.618-5.145.618z" fill="#fff"/><path d="M42.456 32.166c-.866 1.435-2.449 2.177-4.502 2.177-2.77 0-5.318-1.188-5.318-3.958 0-2.647 1.756-3.784 5.64-3.784h3.561c0-1.757-.94-2.202-3.042-2.202h-2.572c-2.202 0-2.3-.173-2.3-2.72h4.798c5.194 0 6.505 2.102 6.505 5.441v7.099c-2.696 0-2.77-.025-2.77-2.053zm-3.81-3.512c-2.448 0-2.572.024-2.572 1.682 0 .791.643 1.36 2.449 1.36 3.24 0 3.24-.074 3.24-3.018l-3.116-.024zm18.453 3.512c-.668 1.113-2.152 2.201-4.28 2.201-4.476 0-5.367-2.448-5.367-5.886v-6.877c3.142 0 3.364.124 3.364 2.474v4.576c0 2.003.396 2.894 2.77 2.894 2.87 0 2.845-.025 2.845-3.018v-6.926c1.88 0 2.573.05 2.944.346.544.446.47 1.534.47 2.128l.024 10.116c-2.77.025-2.77.025-2.77-2.028zm10.314-7.742h-.84v5.961c0 .717.197 1.064.84 1.064 1.188 0 2.227-.075 2.325 1.212.05.297.075.742.075 1.583-4.576.272-6.679-.693-6.679-3.859v-5.961h-1.706l.074-2.226c1.607 0 1.607 0 1.607-1.064v-2.696h3.39v3.216h3.462c-.025 2.597-.223 2.77-2.548 2.77zm9.969 9.943c-5.269 0-6.605-3.166-6.605-6.455 0-3.24 1.41-6.431 6.63-6.431 5.144 0 6.628 3.165 6.628 6.43 0 3.34-1.484 6.456-6.653 6.456zm3.24-6.455c0-2.152-.569-3.661-3.19-3.661-3.216 0-3.192.024-3.192 3.66 0 2.202.619 3.686 3.166 3.686 3.24 0 3.166-.025 3.166-3.685h.05z" fill="#fff"/><path d="M87.597 34.194c-1.558-.148-1.46-1.187-1.46-2.449V16.83c3.142 0 3.39.075 3.39 2.424V34.22c-1.064 0-1.559 0-1.93-.025zm8.954.025c-1.385-.025-1.954-.099-2.844-1.237l-3.438-4.304c-.693-.865-.718-1.385 0-2.25l3.833-4.824h4.626l-5.615 5.986 6.085 6.629H96.55zm12.392-2.053c-.865 1.435-2.448 2.177-4.501 2.177-2.771 0-5.318-1.188-5.318-3.958 0-2.647 1.756-3.784 5.639-3.784h3.562c0-1.757-.94-2.202-3.042-2.202h-2.573c-2.201 0-2.3-.173-2.3-2.72h4.798c5.195 0 6.506 2.102 6.506 5.441v7.099c-2.672 0-2.771-.025-2.771-2.053zm-3.784-3.512c-2.449 0-2.572.024-2.572 1.682 0 .791.643 1.36 2.448 1.36 3.241 0 3.241-.074 3.241-3.018l-3.117-.024zm17.982 3.116v-4.526c0-2.053-.321-2.993-2.696-2.993-1.484 0-2.226-.074-2.597.272-.396.445-.272 2.25-.272 2.72v6.976c-.668 0-2.35.124-2.919-.322-.42-.296-.495-.89-.495-2.102V21.654c2.746 0 2.746 0 2.746 1.558.767-.915 2.152-1.732 4.254-1.732 4.453 0 5.343 2.573 5.343 5.986v6.753c-3.141 0-3.364-.099-3.364-2.449z" fill="#fff"/><path d="M131.155 34.343c-1.286 0-2.3-.322-2.3-1.88 0-1.559 1.014-1.905 2.3-1.905 1.237 0 2.301.346 2.301 1.905 0 1.558-1.138 1.88-2.301 1.88zm13.53-2.573v-4.526c0-2.053-.321-2.993-2.696-2.993-1.484 0-2.226-.074-2.597.272-.396.445-.272 2.25-.272 2.72v6.976c-.668 0-2.35.124-2.919-.322-.42-.296-.494-.89-.494-2.102V21.654c2.745 0 2.745 0 2.745 1.558.767-.915 2.152-1.732 4.255-1.732 4.452 0 5.342 2.573 5.342 5.986v6.753c-3.141 0-3.364-.099-3.364-2.449zm5.937-.05V16.83c.668 0 2.325-.123 2.919.322.395.297.494.89.494 2.102V34.22c-3.191 0-3.413-.124-3.413-2.498z" fill="#fff"/><path d="M36.816 43.025c-.47-.05-.445-.322-.445-.742v-1.237h-2.053V43c-.965 0-1.039-.025-1.039-.742v-3.933c.965 0 1.039.025 1.039.742v1.138h2.053v-1.88c.965 0 1.039.025 1.039.742V43c-.322.025-.47.025-.594.025zm4.254-1.559h-1.83c0 .47.347.767.916.767h.816c.668 0 .717.05.717.792H40.18c-1.558 0-1.979-.916-1.979-1.88 0-.99.42-1.905 1.98-1.905 1.211 0 1.805.718 1.805 1.633.025.668-.074.593-.915.593zm-.94-1.434c-.865 0-.89 0-.89.816h1.756c0-.495-.346-.816-.865-.816zm4.082.098h-.247v1.782c0 .222.05.321.247.321.346 0 .668-.024.693.347.024.099.024.222.024.47-1.36.074-1.978-.198-1.978-1.138V40.13h-.52l.025-.668c.47 0 .47 0 .47-.322v-.791h1.014v.94h1.039c-.025.791-.074.84-.767.84zm5.64 2.944c-1.583 0-2.004-.964-2.004-1.954v-3.265c.915 0 .99.05.99.742v1.188c.197-.322.618-.545 1.162-.545 1.336 0 1.707.916 1.707 1.905 0 .99-.495 1.93-1.855 1.93zm.816-1.929c0-.717-.173-1.064-.94-1.064-.94 0-.94-.05-.94 1.064 0 .717.173 1.088.94 1.088.94.025.94.025.94-1.088zm4.428.321h-1.83c0 .47.345.767.914.767h.816c.668 0 .718.05.718.792h-1.509c-1.558 0-1.979-.916-1.979-1.88 0-.99.42-1.905 1.979-1.905 1.212 0 1.806.718 1.806 1.633.024.668-.075.593-.916.593zm-.94-1.434c-.866 0-.89 0-.89.816h1.755c0-.495-.346-.816-.865-.816zm3.908 3.018h-1.46c0-.149-.05-.545.1-.693.073-.074.246-.1.593-.1h.742c.123 0 .643.026.742-.024.05-.025.05-.297.05-.321 0-.248-.495-.371-.693-.396-.668-.148-1.558-.173-1.558-1.064-.025-.717.544-1.137 1.731-1.137h1.336c0 .173.05.544-.1.692-.073.074-.247.099-.593.099h-.668c-.099 0-.593 0-.692.025-.05.024-.025.321-.025.37 0 .075.05.174.297.248.742.223 1.954.148 1.954 1.212 0 .569-.544 1.088-1.756 1.088zm3.858-2.92h-.247v1.782c0 .222.05.321.247.321.347 0 .668-.024.693.347.025.099.025.222.025.47-1.36.074-1.98-.198-1.98-1.138V40.13h-.519l.025-.668c.47 0 .47 0 .47-.322v-.791h1.014v.94h1.04c-.026.791-.075.84-.768.84zm3.933 1.336h-1.83c0 .47.346.767.915.767h.816c.668 0 .718.05.718.792h-1.51c-1.558 0-1.978-.916-1.978-1.88 0-.99.42-1.905 1.979-1.905 1.212 0 1.805.718 1.805 1.633 0 .668-.074.593-.915.593zm-.94-1.434c-.866 0-.89 0-.89.816h1.756c0-.495-.346-.816-.866-.816zm5.343 2.993c-.47-.05-.445-.346-.445-.742v-4.428c.94 0 1.014.025 1.014.718v4.452h-.569zm2.647 0c-.42 0-.57-.025-.841-.371l-1.014-1.286c-.198-.248-.223-.42 0-.668l1.137-1.435h1.385l-1.681 1.781 1.805 1.979h-.791zm3.289-3.735v.47c-.049.396-.272.346-.593.346-.396 0-.495.05-.544.371-.025.124 0 .297 0 .47V43c-.94 0-1.014-.025-1.014-.717v-3.018c.816 0 .816.05.816.544.198-.297.618-.544 1.335-.52zm3.166 2.176h-1.83c0 .47.346.767.915.767h.817c.667 0 .717.05.717.792H78.47c-1.558 0-1.979-.916-1.979-1.88 0-.99.42-1.905 1.979-1.905 1.212 0 1.806.718 1.806 1.633 0 .668-.075.593-.915.593zm-.94-1.434c-.865 0-.89 0-.89.816h1.756c0-.495-.346-.816-.865-.816zm5.467 2.399c-.198.347-.668.643-1.336.643-1.335 0-1.707-.94-1.707-1.929 0-1.014.372-1.905 1.707-1.905.544 0 1.014.272 1.138.544v-1.929c.198 0 .693-.05.866.1.123.098.148.271.148.642v4.428c-.767 0-.816 0-.816-.594zm-.173-1.286c0-.693-.149-1.064-.94-1.064-.94 0-.915-.05-.915 1.064 0 .692.173 1.088.915 1.088.94 0 .915.025.94-1.088zm2.35-2.226c-.371 0-.693-.124-.693-.57 0-.47.322-.568.693-.568.37 0 .668.099.668.569 0 .445-.297.569-.668.569zm-.495 3.388v-2.992c.198 0 .693-.025.866.098.123.1.148.248.148.619v3.017c-.94-.024-1.014-.049-1.014-.742zm4.527-.841h-1.83c0 .47.345.767.914.767h.816c.668 0 .718.05.718.792h-1.509c-1.558 0-1.979-.916-1.979-1.88 0-.99.42-1.905 1.979-1.905 1.212 0 1.806.718 1.806 1.633.024.668-.05.593-.915.593zm-.916-1.434c-.866 0-.89 0-.89.816h1.756c-.025-.495-.346-.816-.866-.816zm4.057.098h-.248v1.782c0 .222.05.321.248.321.346 0 .668-.024.692.347.025.099.025.222.025.47-1.36.074-1.979-.198-1.979-1.138V40.13h-.52l.026-.668c.47 0 .47 0 .47-.322v-.791h1.014v.94h1.038c0 .791-.074.84-.766.84zm2.003 2.944c-.37 0-.692-.099-.692-.544 0-.445.296-.569.692-.569.371 0 .693.1.693.57s-.346.543-.693.543z" fill="#fff"/><path d="M100.806 43.05h-.915c-.446 0-.644-.025-.767-.1-.173-.148-.149-.445-.149-.643v-3.215c0-.717.075-.742.916-.742h.989c1.484 0 2.251.84 2.251 2.3 0 1.484-.841 2.4-2.325 2.4zm1.311-2.4c0-1.138-.446-1.46-1.41-1.46h-.717v3.019h.667c1.46 0 1.46 0 1.46-1.559zm4.477.816h-1.831c0 .47.347.767.915.767h.817c.668 0 .717.05.717.792h-1.509c-1.558 0-1.979-.916-1.979-1.88 0-.99.421-1.905 1.979-1.905 1.212 0 1.806.718 1.806 1.633 0 .668-.074.593-.915.593zm-.94-1.434c-.866 0-.891 0-.891.816h1.756c-.024-.495-.346-.816-.865-.816zm6.208 3.018h-1.459c0-.149-.05-.545.099-.693.074-.074.247-.1.593-.1h.742c.124 0 .644.026.743-.024.049-.025.049-.297.049-.321 0-.248-.495-.371-.693-.396-.667-.148-1.558-.173-1.558-1.064-.025-.717.544-1.137 1.732-1.137h1.335c0 .173.05.544-.099.692-.074.074-.247.099-.593.099h-.668c-.099 0-.594 0-.693.025-.049.024-.025.321-.025.37 0 .075.05.174.297.248.742.223 1.954.148 1.954 1.212 0 .569-.544 1.088-1.756 1.088zm2.399-.743V37.88c.198 0 .693-.05.866.099.124.099.149.272.149.618v4.453c-.94-.025-1.015-.05-1.015-.743zm2.375-3.388c-.371 0-.693-.124-.693-.57 0-.47.322-.568.693-.568.371 0 .668.099.668.569 0 .445-.297.569-.668.569zm-.495 3.388v-2.992c.198 0 .693-.025.866.098.124.1.148.248.148.619v3.017c-.939-.024-1.014-.049-1.014-.742zm6.679.718c-.47-.05-.421-.347-.421-.718V40.8c0-.47-.099-.742-.593-.742-.619 0-.594.024-.594.742v2.226c-.198 0-.693.05-.866-.1-.123-.098-.148-.271-.148-.642v-1.51c0-.47-.099-.741-.594-.741-.618 0-.593.025-.593.742V43c-.198 0-.693.05-.866-.099-.124-.099-.149-.272-.149-.643V39.24c.817 0 .817.025.817.47.148-.222.544-.52 1.039-.52.494 0 .915.223 1.038.52.174-.222.545-.52 1.163-.52 1.138 0 1.336.768 1.336 1.609v2.176c-.322.05-.47.05-.569.05zm2.721.025h-1.46c0-.149-.049-.545.099-.693.074-.074.248-.1.594-.1h.742c.124 0 .643.026.742-.024.049-.025.049-.297.049-.321 0-.248-.494-.371-.692-.396-.668-.148-1.558-.173-1.558-1.064-.025-.717.544-1.137 1.731-1.137h1.336c0 .173.049.544-.099.692-.074.074-.248.099-.594.099h-.668c-.099 0-.593 0-.692.025-.05.024-.025.321-.025.37 0 .075.049.174.297.248.742.223 1.954.148 1.954 1.212 0 .569-.544 1.088-1.756 1.088zm3.858-2.92h-.247v1.782c0 .222.049.321.247.321.347 0 .668-.024.693.347.025.099.025.222.025.47-1.361.074-1.979-.198-1.979-1.138V40.13h-.52l.025-.668c.47 0 .47 0 .47-.322v-.791h1.014v.94h1.039c-.025.791-.074.84-.767.84zm3.933 1.336h-1.83c0 .47.346.767.915.767h.816c.668 0 .718.05.718.792h-1.509c-1.559 0-1.979-.916-1.979-1.88 0-.99.42-1.905 1.979-1.905 1.212 0 1.805.718 1.805 1.633 0 .668-.074.593-.915.593zm-.94-1.434c-.866 0-.89 0-.89.816h1.756c0-.495-.346-.816-.866-.816zm7.817 2.399c-.198.347-.668.643-1.336.643-1.336 0-1.707-.94-1.707-1.929 0-1.014.371-1.905 1.707-1.905.544 0 1.014.272 1.138.544v-1.929c.198 0 .692-.05.865.1.124.098.149.271.149.642v4.428c-.767 0-.816 0-.816-.594zm-.174-1.286c0-.693-.148-1.064-.94-1.064-.939 0-.915-.05-.915 1.064 0 .692.173 1.088.915 1.088.94 0 .916.025.94-1.088zm4.552.321h-1.831c0 .47.346.767.915.767h.817c.667 0 .717.05.717.792h-1.509c-1.558 0-1.979-.916-1.979-1.88 0-.99.421-1.905 1.979-1.905 1.212 0 1.806.718 1.806 1.633.024.668-.074.593-.915.593zm-.94-1.434c-.866 0-.891 0-.891.816h1.756c0-.495-.346-.816-.865-.816zm5.293 2.399c-.247.42-.742.643-1.336.643-.816 0-1.583-.346-1.583-1.187 0-.792.52-1.138 1.682-1.138h1.064c0-.52-.272-.643-.915-.643h-.767c-.643 0-.693-.05-.693-.816h1.435c1.533 0 1.929.618 1.929 1.632v2.103c-.791 0-.816 0-.816-.594zm-1.138-1.039c-.742 0-.767 0-.767.495 0 .247.198.396.742.396.965 0 .965-.025.965-.89h-.94zm2.746.915V37.88c.198 0 .692-.05.865.099.124.099.149.272.149.618v4.453c-.94-.025-1.014-.05-1.014-.743zm2.473.767c-.371 0-.692-.099-.692-.544 0-.445.296-.569.692-.569.371 0 .693.1.693.57s-.347.543-.693.543z" fill="#fff"/></svg>